<svg xmlns="http://www.w3.org/2000/svg" width="180" height="180" viewBox="0 0 180 180" role="img" aria-label="BCMS apple icon">
  <defs>
    <linearGradient id="bg" x1="0" y1="0" x2="1" y2="1">
      <stop offset="0%" stop-color="#4f46e5" />
      <stop offset="100%" stop-color="#7c3aed" />
    </linearGradient>
  </defs>
  <rect width="180" height="180" rx="40" fill="url(#bg)" />
  <path d="M44 50h45c21 0 34 11 34 28 0 10-5 18-14 22 12 4 19 13 19 25 0 20-14 31-38 31H44V50zm41 41c10 0 16-4 16-11s-6-11-16-11H65v22h20zm4 49c11 0 17-5 17-14s-6-14-17-14H65v28h24z" fill="#ffffff"/>
</svg>
