<svg xmlns="http://www.w3.org/2000/svg" width="256" height="256" viewBox="0 0 256 256" role="img" aria-label="BCMS icon">
  <defs>
    <linearGradient id="bg" x1="0" y1="0" x2="1" y2="1">
      <stop offset="0%" stop-color="#4f46e5" />
      <stop offset="100%" stop-color="#7c3aed" />
    </linearGradient>
  </defs>
  <rect width="256" height="256" rx="56" fill="url(#bg)" />
  <path d="M66 72h64c30 0 48 16 48 40 0 14-8 26-21 32 17 6 27 19 27 36 0 28-20 44-54 44H66V72zm58 58c14 0 22-6 22-16s-8-16-22-16H96v32h28zm6 68c15 0 24-7 24-19s-9-19-24-19H96v38h34z" fill="#ffffff"/>
</svg>
